{
	"asset":{
		"generator":"Khronos glTF Blender I/O v4.0.44",
		"version":"2.0"
	},
	"scene":0,
	"scenes":[
		{
			"name":"Scene",
			"nodes":[
				2
			]
		}
	],
	"nodes":[
		{
			"mesh":0,
			"name":"Plane.001",
			"rotation":[
				-0.7372773885726929,
				0,
				-0.6755901575088501,
				3.222741895569925e-08
			],
			"scale":[
				-8.320199966430664,
				-8.320199966430664,
				-8.320199966430664
			],
			"translation":[
				0.5439835786819458,
				0,
				0
			]
		},
		{
			"mesh":1,
			"name":"Plane.009",
			"rotation":[
				0,
				0.6755902171134949,
				0,
				0.7372773289680481
			],
			"scale":[
				8.320199966430664,
				8.320199966430664,
				8.320199966430664
			],
			"translation":[
				-0.5331038236618042,
				0,
				0
			]
		},
		{
			"children":[
				0,
				1
			],
			"name":"Shoes",
			"scale":[
				8,
				8,
				8
			]
		}
	],
	"materials":[
		{
			"doubleSided":true,
			"name":"Shoes_Rubber",
			"pbrMetallicRoughness":{
				"baseColorFactor":[
					0.3024234175682068,
					0.1731926053762436,
					0.0926985815167427,
					1
				],
				"metallicFactor":0
			}
		},
		{
			"doubleSided":true,
			"name":"Shoes_Bake Fabric",
			"normalTexture":{
				"index":0
			},
			"pbrMetallicRoughness":{
				"baseColorTexture":{
					"index":1
				},
				"metallicFactor":0,
				"metallicRoughnessTexture":{
					"index":2
				}
			}
		},
		{
			"doubleSided":true,
			"name":"Shoes_Leather",
			"normalTexture":{
				"index":3
			},
			"pbrMetallicRoughness":{
				"baseColorTexture":{
					"index":4
				},
				"metallicFactor":0,
				"metallicRoughnessTexture":{
					"index":5
				}
			}
		},
		{
			"doubleSided":true,
			"name":"Shoes_Metal",
			"normalTexture":{
				"index":6,
				"scale":0.30000001192092896
			},
			"pbrMetallicRoughness":{
				"baseColorTexture":{
					"index":7
				},
				"metallicRoughnessTexture":{
					"index":8
				}
			}
		},
		{
			"doubleSided":true,
			"name":"Shoes_Lace",
			"normalTexture":{
				"index":9
			},
			"pbrMetallicRoughness":{
				"baseColorTexture":{
					"index":10
				},
				"metallicFactor":0,
				"metallicRoughnessTexture":{
					"index":11
				}
			}
		},
		{
			"doubleSided":true,
			"name":"Shoes_Interior Pad",
			"normalTexture":{
				"index":12,
				"scale":0.20000000298023224
			},
			"pbrMetallicRoughness":{
				"baseColorTexture":{
					"index":13
				},
				"metallicFactor":0,
				"metallicRoughnessTexture":{
					"index":14
				}
			}
		},
		{
			"doubleSided":true,
			"name":"Shoes_Front Rubber",
			"pbrMetallicRoughness":{
				"baseColorFactor":[
					0.3024234175682068,
					0.1731926053762436,
					0.0926985815167427,
					1
				],
				"metallicFactor":0
			}
		}
	],
	"meshes":[
		{
			"name":"Plane.001",
			"primitives":[
				{
					"attributes":{
						"POSITION":0,
						"NORMAL":1,
						"TEXCOORD_0":2
					},
					"indices":3,
					"material":0
				},
				{
					"attributes":{
						"POSITION":4,
						"NORMAL":5,
						"TEXCOORD_0":6
					},
					"indices":7,
					"material":1
				},
				{
					"attributes":{
						"POSITION":8,
						"NORMAL":9,
						"TEXCOORD_0":10
					},
					"indices":11,
					"material":2
				},
				{
					"attributes":{
						"POSITION":12,
						"NORMAL":13,
						"TEXCOORD_0":14
					},
					"indices":15,
					"material":3
				},
				{
					"attributes":{
						"POSITION":16,
						"NORMAL":17,
						"TEXCOORD_0":18
					},
					"indices":19,
					"material":4
				},
				{
					"attributes":{
						"POSITION":20,
						"NORMAL":21,
						"TEXCOORD_0":22
					},
					"indices":23,
					"material":5
				},
				{
					"attributes":{
						"POSITION":24,
						"NORMAL":25,
						"TEXCOORD_0":26
					},
					"indices":27,
					"material":6
				}
			]
		},
		{
			"name":"Plane.003",
			"primitives":[
				{
					"attributes":{
						"POSITION":28,
						"NORMAL":29,
						"TEXCOORD_0":30
					},
					"indices":3,
					"material":0
				},
				{
					"attributes":{
						"POSITION":31,
						"NORMAL":32,
						"TEXCOORD_0":33
					},
					"indices":7,
					"material":1
				},
				{
					"attributes":{
						"POSITION":34,
						"NORMAL":35,
						"TEXCOORD_0":36
					},
					"indices":11,
					"material":2
				},
				{
					"attributes":{
						"POSITION":37,
						"NORMAL":38,
						"TEXCOORD_0":39
					},
					"indices":15,
					"material":3
				},
				{
					"attributes":{
						"POSITION":40,
						"NORMAL":41,
						"TEXCOORD_0":42
					},
					"indices":19,
					"material":4
				},
				{
					"attributes":{
						"POSITION":43,
						"NORMAL":44,
						"TEXCOORD_0":45
					},
					"indices":23,
					"material":5
				},
				{
					"attributes":{
						"POSITION":46,
						"NORMAL":47,
						"TEXCOORD_0":48
					},
					"indices":27,
					"material":6
				}
			]
		}
	],
	"textures":[
		{
			"sampler":0,
			"source":0
		},
		{
			"sampler":0,
			"source":1
		},
		{
			"sampler":0,
			"source":2
		},
		{
			"sampler":0,
			"source":3
		},
		{
			"sampler":0,
			"source":4
		},
		{
			"sampler":0,
			"source":5
		},
		{
			"sampler":0,
			"source":6
		},
		{
			"sampler":0,
			"source":7
		},
		{
			"sampler":0,
			"source":8
		},
		{
			"sampler":0,
			"source":9
		},
		{
			"sampler":0,
			"source":10
		},
		{
			"sampler":0,
			"source":11
		},
		{
			"sampler":0,
			"source":0
		},
		{
			"sampler":0,
			"source":12
		},
		{
			"sampler":0,
			"source":2
		}
	],
	"images":[
		{
			"mimeType":"image/jpeg",
			"name":"Fabric045_2K_Normal",
			"uri":"Fabric045_2K_Normal.jpg"
		},
		{
			"mimeType":"image/jpeg",
			"name":"texture 4",
			"uri":"texture%204.jpg"
		},
		{
			"mimeType":"image/png",
			"name":"Fabric045_2K_Roughness",
			"uri":"Fabric045_2K_Roughness.png"
		},
		{
			"mimeType":"image/jpeg",
			"name":"Leather029_2K_Normal",
			"uri":"Leather029_2K_Normal.jpg"
		},
		{
			"mimeType":"image/jpeg",
			"name":"Leather029_2K_Color",
			"uri":"Leather029_2K_Color.jpg"
		},
		{
			"mimeType":"image/png",
			"name":"Leather029_2K_Roughness",
			"uri":"Leather029_2K_Roughness.png"
		},
		{
			"mimeType":"image/jpeg",
			"name":"Metal012_2K_Normal",
			"uri":"Metal012_2K_Normal.jpg"
		},
		{
			"mimeType":"image/jpeg",
			"name":"Metal012_2K_Color000",
			"uri":"Metal012_2K_Color000.jpg"
		},
		{
			"mimeType":"image/png",
			"name":"Metal012_2K_Color.jpg-Metal012_2K_Roughness",
			"uri":"Metal012_2K_Color_jpg-Metal012_2K_Roughness.png"
		},
		{
			"mimeType":"image/jpeg",
			"name":"Fabric005_2K_Normal",
			"uri":"Fabric005_2K_Normal.jpg"
		},
		{
			"mimeType":"image/jpeg",
			"name":"Fabric005_2K_Color",
			"uri":"Fabric005_2K_Color.jpg"
		},
		{
			"mimeType":"image/png",
			"name":"Fabric005_2K_Roughness",
			"uri":"Fabric005_2K_Roughness.png"
		},
		{
			"mimeType":"image/jpeg",
			"name":"Fabric045_2K_Color",
			"uri":"Fabric045_2K_Color.jpg"
		}
	],
	"accessors":[
		{
			"bufferView":0,
			"componentType":5126,
			"count":4924,
			"max":[
				0.11588309705257416,
				0.041448429226875305,
				0.062256764620542526
			],
			"min":[
				-0.13884638249874115,
				0.00016406436043325812,
				-0.028718359768390656
			],
			"type":"VEC3"
		},
		{
			"bufferView":1,
			"componentType":5126,
			"count":4924,
			"type":"VEC3"
		},
		{
			"bufferView":2,
			"componentType":5126,
			"count":4924,
			"type":"VEC2"
		},
		{
			"bufferView":3,
			"componentType":5123,
			"count":7380,
			"type":"SCALAR"
		},
		{
			"bufferView":4,
			"componentType":5126,
			"count":10391,
			"max":[
				0.11171790957450867,
				0.0904705822467804,
				0.06097971647977829
			],
			"min":[
				-0.1364646703004837,
				0.027462758123874664,
				-0.027049504220485687
			],
			"type":"VEC3"
		},
		{
			"bufferView":5,
			"componentType":5126,
			"count":10391,
			"type":"VEC3"
		},
		{
			"bufferView":6,
			"componentType":5126,
			"count":10391,
			"type":"VEC2"
		},
		{
			"bufferView":7,
			"componentType":5123,
			"count":16530,
			"type":"SCALAR"
		},
		{
			"bufferView":8,
			"componentType":5126,
			"count":2306,
			"max":[
				0.11153033375740051,
				0.07999809831380844,
				0.059844743460416794
			],
			"min":[
				-0.13607363402843475,
				0.023370571434497833,
				-0.026167627424001694
			],
			"type":"VEC3"
		},
		{
			"bufferView":9,
			"componentType":5126,
			"count":2306,
			"type":"VEC3"
		},
		{
			"bufferView":10,
			"componentType":5126,
			"count":2306,
			"type":"VEC2"
		},
		{
			"bufferView":11,
			"componentType":5123,
			"count":3582,
			"type":"SCALAR"
		},
		{
			"bufferView":12,
			"componentType":5126,
			"count":14400,
			"max":[
				0.0006784054567106068,
				0.07650363445281982,
				0.0397634319961071
			],
			"min":[
				-0.05669127777218819,
				0.054842062294483185,
				-0.012738003395497799
			],
			"type":"VEC3"
		},
		{
			"bufferView":13,
			"componentType":5126,
			"count":14400,
			"type":"VEC3"
		},
		{
			"bufferView":14,
			"componentType":5126,
			"count":14400,
			"type":"VEC2"
		},
		{
			"bufferView":15,
			"componentType":5123,
			"count":21600,
			"type":"SCALAR"
		},
		{
			"bufferView":16,
			"componentType":5126,
			"count":1320,
			"max":[
				-0.0011661127209663391,
				0.08570355176925659,
				0.038729503750801086
			],
			"min":[
				-0.05600494518876076,
				0.053245753049850464,
				-0.012021863833069801
			],
			"type":"VEC3"
		},
		{
			"bufferView":17,
			"componentType":5126,
			"count":1320,
			"type":"VEC3"
		},
		{
			"bufferView":18,
			"componentType":5126,
			"count":1320,
			"type":"VEC2"
		},
		{
			"bufferView":19,
			"componentType":5123,
			"count":6564,
			"type":"SCALAR"
		},
		{
			"bufferView":20,
			"componentType":5126,
			"count":304,
			"max":[
				0.10682117193937302,
				0.03759298846125603,
				0.05490126833319664
			],
			"min":[
				-0.1313934475183487,
				0.023278160020709038,
				-0.021252628415822983
			],
			"type":"VEC3"
		},
		{
			"bufferView":21,
			"componentType":5126,
			"count":304,
			"type":"VEC3"
		},
		{
			"bufferView":22,
			"componentType":5126,
			"count":304,
			"type":"VEC2"
		},
		{
			"bufferView":23,
			"componentType":5123,
			"count":1812,
			"type":"SCALAR"
		},
		{
			"bufferView":24,
			"componentType":5126,
			"count":1232,
			"max":[
				-0.02921685203909874,
				0.03555731475353241,
				0.06624506413936615
			],
			"min":[
				-0.14518706500530243,
				1.8874903616961092e-05,
				-0.029500097036361694
			],
			"type":"VEC3"
		},
		{
			"bufferView":25,
			"componentType":5126,
			"count":1232,
			"type":"VEC3"
		},
		{
			"bufferView":26,
			"componentType":5126,
			"count":1232,
			"type":"VEC2"
		},
		{
			"bufferView":27,
			"componentType":5123,
			"count":1848,
			"type":"SCALAR"
		},
		{
			"bufferView":28,
			"componentType":5126,
			"count":4924,
			"max":[
				0.11588309705257416,
				0.041448429226875305,
				0.062256764620542526
			],
			"min":[
				-0.13884638249874115,
				0.00016406436043325812,
				-0.028718359768390656
			],
			"type":"VEC3"
		},
		{
			"bufferView":29,
			"componentType":5126,
			"count":4924,
			"type":"VEC3"
		},
		{
			"bufferView":30,
			"componentType":5126,
			"count":4924,
			"type":"VEC2"
		},
		{
			"bufferView":31,
			"componentType":5126,
			"count":10391,
			"max":[
				0.11171790957450867,
				0.0904705822467804,
				0.06097971647977829
			],
			"min":[
				-0.1364646703004837,
				0.027462758123874664,
				-0.027049504220485687
			],
			"type":"VEC3"
		},
		{
			"bufferView":32,
			"componentType":5126,
			"count":10391,
			"type":"VEC3"
		},
		{
			"bufferView":33,
			"componentType":5126,
			"count":10391,
			"type":"VEC2"
		},
		{
			"bufferView":34,
			"componentType":5126,
			"count":2306,
			"max":[
				0.11153033375740051,
				0.07999809831380844,
				0.059844743460416794
			],
			"min":[
				-0.13607363402843475,
				0.023370571434497833,
				-0.026167627424001694
			],
			"type":"VEC3"
		},
		{
			"bufferView":35,
			"componentType":5126,
			"count":2306,
			"type":"VEC3"
		},
		{
			"bufferView":36,
			"componentType":5126,
			"count":2306,
			"type":"VEC2"
		},
		{
			"bufferView":37,
			"componentType":5126,
			"count":14400,
			"max":[
				0.0006784054567106068,
				0.07650363445281982,
				0.0397634319961071
			],
			"min":[
				-0.05669127777218819,
				0.054842062294483185,
				-0.012738003395497799
			],
			"type":"VEC3"
		},
		{
			"bufferView":38,
			"componentType":5126,
			"count":14400,
			"type":"VEC3"
		},
		{
			"bufferView":39,
			"componentType":5126,
			"count":14400,
			"type":"VEC2"
		},
		{
			"bufferView":40,
			"componentType":5126,
			"count":1320,
			"max":[
				-0.0011661127209663391,
				0.08570355176925659,
				0.038729503750801086
			],
			"min":[
				-0.05600494518876076,
				0.053245753049850464,
				-0.012021863833069801
			],
			"type":"VEC3"
		},
		{
			"bufferView":41,
			"componentType":5126,
			"count":1320,
			"type":"VEC3"
		},
		{
			"bufferView":42,
			"componentType":5126,
			"count":1320,
			"type":"VEC2"
		},
		{
			"bufferView":43,
			"componentType":5126,
			"count":304,
			"max":[
				0.10682117193937302,
				0.03759298846125603,
				0.05490126833319664
			],
			"min":[
				-0.1313934475183487,
				0.023278160020709038,
				-0.021252628415822983
			],
			"type":"VEC3"
		},
		{
			"bufferView":44,
			"componentType":5126,
			"count":304,
			"type":"VEC3"
		},
		{
			"bufferView":45,
			"componentType":5126,
			"count":304,
			"type":"VEC2"
		},
		{
			"bufferView":46,
			"componentType":5126,
			"count":1232,
			"max":[
				-0.02921685203909874,
				0.03555731475353241,
				0.06624506413936615
			],
			"min":[
				-0.14518706500530243,
				1.8874903616961092e-05,
				-0.029500097036361694
			],
			"type":"VEC3"
		},
		{
			"bufferView":47,
			"componentType":5126,
			"count":1232,
			"type":"VEC3"
		},
		{
			"bufferView":48,
			"componentType":5126,
			"count":1232,
			"type":"VEC2"
		}
	],
	"bufferViews":[
		{
			"buffer":0,
			"byteLength":59088,
			"byteOffset":0,
			"target":34962
		},
		{
			"buffer":0,
			"byteLength":59088,
			"byteOffset":59088,
			"target":34962
		},
		{
			"buffer":0,
			"byteLength":39392,
			"byteOffset":118176,
			"target":34962
		},
		{
			"buffer":0,
			"byteLength":14760,
			"byteOffset":157568,
			"target":34963
		},
		{
			"buffer":0,
			"byteLength":124692,
			"byteOffset":172328,
			"target":34962
		},
		{
			"buffer":0,
			"byteLength":124692,
			"byteOffset":297020,
			"target":34962
		},
		{
			"buffer":0,
			"byteLength":83128,
			"byteOffset":421712,
			"target":34962
		},
		{
			"buffer":0,
			"byteLength":33060,
			"byteOffset":504840,
			"target":34963
		},
		{
			"buffer":0,
			"byteLength":27672,
			"byteOffset":537900,
			"target":34962
		},
		{
			"buffer":0,
			"byteLength":27672,
			"byteOffset":565572,
			"target":34962
		},
		{
			"buffer":0,
			"byteLength":18448,
			"byteOffset":593244,
			"target":34962
		},
		{
			"buffer":0,
			"byteLength":7164,
			"byteOffset":611692,
			"target":34963
		},
		{
			"buffer":0,
			"byteLength":172800,
			"byteOffset":618856,
			"target":34962
		},
		{
			"buffer":0,
			"byteLength":172800,
			"byteOffset":791656,
			"target":34962
		},
		{
			"buffer":0,
			"byteLength":115200,
			"byteOffset":964456,
			"target":34962
		},
		{
			"buffer":0,
			"byteLength":43200,
			"byteOffset":1079656,
			"target":34963
		},
		{
			"buffer":0,
			"byteLength":15840,
			"byteOffset":1122856,
			"target":34962
		},
		{
			"buffer":0,
			"byteLength":15840,
			"byteOffset":1138696,
			"target":34962
		},
		{
			"buffer":0,
			"byteLength":10560,
			"byteOffset":1154536,
			"target":34962
		},
		{
			"buffer":0,
			"byteLength":13128,
			"byteOffset":1165096,
			"target":34963
		},
		{
			"buffer":0,
			"byteLength":3648,
			"byteOffset":1178224,
			"target":34962
		},
		{
			"buffer":0,
			"byteLength":3648,
			"byteOffset":1181872,
			"target":34962
		},
		{
			"buffer":0,
			"byteLength":2432,
			"byteOffset":1185520,
			"target":34962
		},
		{
			"buffer":0,
			"byteLength":3624,
			"byteOffset":1187952,
			"target":34963
		},
		{
			"buffer":0,
			"byteLength":14784,
			"byteOffset":1191576,
			"target":34962
		},
		{
			"buffer":0,
			"byteLength":14784,
			"byteOffset":1206360,
			"target":34962
		},
		{
			"buffer":0,
			"byteLength":9856,
			"byteOffset":1221144,
			"target":34962
		},
		{
			"buffer":0,
			"byteLength":3696,
			"byteOffset":1231000,
			"target":34963
		},
		{
			"buffer":0,
			"byteLength":59088,
			"byteOffset":1234696,
			"target":34962
		},
		{
			"buffer":0,
			"byteLength":59088,
			"byteOffset":1293784,
			"target":34962
		},
		{
			"buffer":0,
			"byteLength":39392,
			"byteOffset":1352872,
			"target":34962
		},
		{
			"buffer":0,
			"byteLength":124692,
			"byteOffset":1392264,
			"target":34962
		},
		{
			"buffer":0,
			"byteLength":124692,
			"byteOffset":1516956,
			"target":34962
		},
		{
			"buffer":0,
			"byteLength":83128,
			"byteOffset":1641648,
			"target":34962
		},
		{
			"buffer":0,
			"byteLength":27672,
			"byteOffset":1724776,
			"target":34962
		},
		{
			"buffer":0,
			"byteLength":27672,
			"byteOffset":1752448,
			"target":34962
		},
		{
			"buffer":0,
			"byteLength":18448,
			"byteOffset":1780120,
			"target":34962
		},
		{
			"buffer":0,
			"byteLength":172800,
			"byteOffset":1798568,
			"target":34962
		},
		{
			"buffer":0,
			"byteLength":172800,
			"byteOffset":1971368,
			"target":34962
		},
		{
			"buffer":0,
			"byteLength":115200,
			"byteOffset":2144168,
			"target":34962
		},
		{
			"buffer":0,
			"byteLength":15840,
			"byteOffset":2259368,
			"target":34962
		},
		{
			"buffer":0,
			"byteLength":15840,
			"byteOffset":2275208,
			"target":34962
		},
		{
			"buffer":0,
			"byteLength":10560,
			"byteOffset":2291048,
			"target":34962
		},
		{
			"buffer":0,
			"byteLength":3648,
			"byteOffset":2301608,
			"target":34962
		},
		{
			"buffer":0,
			"byteLength":3648,
			"byteOffset":2305256,
			"target":34962
		},
		{
			"buffer":0,
			"byteLength":2432,
			"byteOffset":2308904,
			"target":34962
		},
		{
			"buffer":0,
			"byteLength":14784,
			"byteOffset":2311336,
			"target":34962
		},
		{
			"buffer":0,
			"byteLength":14784,
			"byteOffset":2326120,
			"target":34962
		},
		{
			"buffer":0,
			"byteLength":9856,
			"byteOffset":2340904,
			"target":34962
		}
	],
	"samplers":[
		{
			"magFilter":9729,
			"minFilter":9987
		}
	],
	"buffers":[
		{
			"byteLength":2350760,
			"uri":"2.bin"
		}
	]
}
